Simulation
nRows=15
nColumns=15
endheader
time  TH_x TH_y TH_z SC_y  SC_z  SC_x  AC_y  AC_z  AC_x  GH_y  GH_z  GH_yy  EL_x  PS_y
0.0  0.000000  0.000000  0.000000  -29.15572242194602  -0.8491378092594283  -2.387575713941294  56.214542035199756  8.703053582374183  -6.41395940933428  30.52032482486991  15.74563075069064  10.073512480085748  27.019019897495053  0.000000
0.038999999999999986  0.000000  0.000000  0.000000  -28.838473571951624  -0.6298336287189022  -2.549252614452534  55.901244112186795  8.782427006409044  -6.321922986495496  30.54861660868053  15.803269321051904  9.964483929442505  26.61795535728524  0.000000
0.07799999999999997  0.000000  0.000000  0.000000  -28.56066536700019  -0.49037497638277433  -2.7891897713330267  55.60517526932011  8.824370443081408  -6.236652921324706  30.444732649615084  15.794953899511126  9.993836112907964  26.2043389993233  0.000000
0.11699999999999997  0.000000  0.000000  0.000000  -28.319957116558143  -0.43238292248298854  -3.0995502854592987  55.37767112290365  8.885028794397611  -6.125593642412906  30.332284906187326  15.804236429334884  9.996511495993865  25.807461685805695  0.000000
0.15599999999999994  0.000000  0.000000  0.000000  -28.121023563696234  -0.4451105960047714  -3.450169620430742  55.258010568261795  8.994220276041267  -5.974962903188999  30.40045606629957  15.925447823372428  9.71451126104251  25.452557642118368  0.000000
0.19499999999999992  0.000000  0.000000  0.000000  -27.97887860523159  -0.5026749568584202  -3.7905794299666833  55.26478768322151  9.153495342867995  -5.784071711789404  30.851149421260445  16.244605139225747  8.891153890902828  25.15791679995803  0.000000
0.23399999999999993  0.000000  0.000000  0.000000  -27.90129628127022  -0.5767657744710262  -4.07434235314064  55.38909512829697  9.356631179917407  -5.5687615667493935  31.844004756175906  16.825948079322064  7.324281746613531  24.9356752643878  0.000000
0.2729999999999999  0.000000  0.000000  0.000000  -27.893649574219012  -0.6431065680244737  -4.263822214621794  55.609864076663776  9.588480083551588  -5.349848979696884  33.4208436099447  17.711714686970492  4.949945370871473  24.7838350529605  0.000000
0.3119999999999999  0.000000  0.000000  0.000000  -27.944980343806773  -0.6838718363271787  -4.332919793147164  55.90020698512025  9.828899187172013  -5.147697432514876  35.48289092721232  18.91813061203512  1.8562958989873999  24.695104580825856  0.000000
0.35099999999999987  0.000000  0.000000  0.000000  -28.028227139113003  -0.6920158218436521  -4.263679477487033  56.24020394027907  10.057474746374023  -4.979746866997599  37.81029789827055  20.434665922359265  -1.7291846930754535  24.658971727196786  0.000000
0.38999999999999985  0.000000  0.000000  0.000000  -28.102731785499003  -0.6691698399061264  -4.047626541485572  56.614279883559476  10.261863045426674  -4.859174158586696  40.145691704284864  22.223118632976934  -5.527426956106711  24.669657744843246  0.000000
0.4289999999999998  0.000000  0.000000  0.000000  -28.130263752495946  -0.6207447398754324  -3.682850971092982  57.01341939303457  10.440269067392869  -4.794052119004881  42.27673750474885  24.223988341458718  -9.288424127217338  24.72748735921799  0.000000
0.46799999999999986  0.000000  0.000000  0.000000  -28.08421795209795  -0.5522591394918495  -3.1695106668149076  57.431482864354116  10.596162636467383  -4.788412935525402  44.086085615364034  26.3682980762794  -12.849890600081212  24.827326791064294  0.000000
0.5069999999999998  0.000000  0.000000  0.000000  -27.954300684697195  -0.46741374152279946  -2.506150764740394  57.86387048174617  10.733883935455838  -4.845446182224719  45.55340975045442  28.58992373315378  -16.14743714876526  24.952101933162925  0.000000
0.5459999999999998  0.000000  0.000000  0.000000  -27.747941818727366  -0.3658752994446329  -1.688363768657845  58.30181537653402  10.85373807441341  -4.968302848057418  46.73149196266959  30.833988387709446  -19.199396215360355  25.07802383560469  0.000000
